<svg width="56" height="56" viewBox="0 0 56 56" fill="none" xmlns="http://www.w3.org/2000/svg">
<path d="M20.125 13.125C20.125 11.0364 20.9547 9.03338 22.4315 7.55653C23.9084 6.07968 25.9114 5.25 28 5.25C30.0886 5.25 32.0916 6.07968 33.5685 7.55653C35.0453 9.03338 35.875 11.0364 35.875 13.125C35.875 15.2136 35.0453 17.2166 33.5685 18.6935C32.0916 20.1703 30.0886 21 28 21C25.9114 21 23.9084 20.1703 22.4315 18.6935C20.9547 17.2166 20.125 15.2136 20.125 13.125ZM10.5 10.5C8.64348 10.5 6.86301 11.2375 5.55025 12.5503C4.2375 13.863 3.5 15.6435 3.5 17.5C3.5 19.3565 4.2375 21.137 5.55025 22.4497C6.86301 23.7625 8.64348 24.5 10.5 24.5C12.3565 24.5 14.137 23.7625 15.4497 22.4497C16.7625 21.137 17.5 19.3565 17.5 17.5C17.5 15.6435 16.7625 13.863 15.4497 12.5503C14.137 11.2375 12.3565 10.5 10.5 10.5ZM45.5 10.5C43.6435 10.5 41.863 11.2375 40.5503 12.5503C39.2375 13.863 38.5 15.6435 38.5 17.5C38.5 19.3565 39.2375 21.137 40.5503 22.4497C41.863 23.7625 43.6435 24.5 45.5 24.5C47.3565 24.5 49.137 23.7625 50.4497 22.4497C51.7625 21.137 52.5 19.3565 52.5 17.5C52.5 15.6435 51.7625 13.863 50.4497 12.5503C49.137 11.2375 47.3565 10.5 45.5 10.5ZM14.875 28.875C14.875 28.4853 14.9059 28.1056 14.9678 27.7358L6.74275 29.939C5.62216 30.2396 4.66686 30.973 4.08696 31.9779C3.50706 32.9828 3.35007 34.1769 3.6505 35.2975L5.236 41.2125C5.61871 42.6416 6.29912 43.9738 7.23264 45.1216C8.16616 46.2694 9.33171 47.207 10.6529 47.8729C11.9741 48.5388 13.4211 48.9179 14.899 48.9855C16.377 49.0531 17.8526 48.8075 19.229 48.265C17.8569 47.0354 16.7599 45.53 16.0096 43.8473C15.2593 42.1646 14.8727 40.3424 14.875 38.5V28.875ZM41.125 38.5C41.1269 40.3427 40.7397 42.165 39.9888 43.8477C39.2379 45.5305 38.1402 47.0357 36.7675 48.265C37.135 48.4097 37.5124 48.5339 37.8997 48.6377C40.5896 49.3582 43.4555 48.9807 45.867 47.5882C48.2785 46.1957 50.0381 43.9023 50.7587 41.2125L52.3442 35.2975C52.493 34.7425 52.5309 34.1636 52.4559 33.594C52.3809 33.0243 52.1944 32.475 51.9071 31.9774C51.6198 31.4798 51.2373 31.0437 50.7814 30.6939C50.3256 30.3442 49.8053 30.0877 49.2502 29.939L41.0322 27.7358C41.0941 28.1079 41.125 28.4877 41.125 28.875V38.5ZM21.875 24.5C20.7147 24.5 19.6019 24.9609 18.7814 25.7814C17.9609 26.6019 17.5 27.7147 17.5 28.875V38.5C17.5 41.2848 18.6062 43.9555 20.5754 45.9246C22.5445 47.8938 25.2152 49 28 49C30.7848 49 33.4555 47.8938 35.4246 45.9246C37.3938 43.9555 38.5 41.2848 38.5 38.5V28.875C38.5 27.7147 38.0391 26.6019 37.2186 25.7814C36.3981 24.9609 35.2853 24.5 34.125 24.5H21.875Z" fill="#667E06"/>
</svg>
